<svg width="18" height="17" viewBox="0 0 18 17">
<path d="M15.8048 15.1788C16.187 15.1788 16.5181 15.0526 16.7996 14.8034L11.9832 9.98689C11.8676 10.0696 11.7556 10.1501 11.6498 10.2266C11.2894 10.4922 10.9968 10.6994 10.7722 10.8479C10.5476 10.9967 10.2488 11.1484 9.87575 11.3033C9.50248 11.4584 9.15473 11.5356 8.83213 11.5356H8.82269H8.81324C8.49062 11.5356 8.14287 11.4584 7.76962 11.3033C7.39638 11.1484 7.09755 10.9967 6.87316 10.8479C6.64856 10.6994 6.35618 10.4922 5.99556 10.2266C5.89507 10.1529 5.78362 10.0721 5.66312 9.9856L0.845825 14.8034C1.12728 15.0526 1.45861 15.1788 1.84071 15.1788H15.8048Z" />
<path d="M1.281 6.95386C0.920599 6.71358 0.600997 6.43839 0.322754 6.12842V13.4564L4.56788 9.21129C3.71862 8.61838 2.62438 7.86677 1.281 6.95386Z" />
<path d="M16.3741 6.95386C15.082 7.82843 13.9838 8.58134 13.0793 9.21298L17.3227 13.4566V6.12842C17.0507 6.43216 16.7345 6.70716 16.3741 6.95386Z"/>
<path d="M15.8047 1.82153H1.84064C1.35347 1.82153 0.978932 1.98604 0.716553 2.31472C0.453958 2.64355 0.322876 3.05479 0.322876 3.54797C0.322876 3.94634 0.496828 4.37798 0.844579 4.84301C1.19233 5.30786 1.56236 5.67299 1.9545 5.93858C2.16947 6.09046 2.81775 6.54114 3.89933 7.29047C4.4832 7.69507 4.99095 8.04773 5.42728 8.35206C5.7992 8.61119 6.11995 8.83561 6.38476 9.02185C6.41516 9.04317 6.46297 9.07737 6.52643 9.12274C6.5948 9.17185 6.68131 9.23416 6.78804 9.31123C6.99357 9.45987 7.16431 9.58003 7.3003 9.67182C7.4361 9.76364 7.60064 9.86621 7.79367 9.98009C7.98654 10.0938 8.16845 10.1794 8.3392 10.2362C8.50997 10.2931 8.66806 10.3216 8.81349 10.3216H8.82294H8.83238C8.97778 10.3216 9.1359 10.2931 9.30671 10.2362C9.47742 10.1794 9.65918 10.094 9.85221 9.98009C10.045 9.86621 10.2094 9.76343 10.3456 9.67182C10.4816 9.58003 10.6523 9.45991 10.8579 9.31123C10.9644 9.23416 11.0509 9.17182 11.1193 9.1229C11.1828 9.07734 11.2306 9.04336 11.2611 9.02185C11.4674 8.87829 11.7889 8.65481 12.2212 8.35468C13.0076 7.80822 14.1659 7.00393 15.7009 5.93858C16.1625 5.61614 16.5482 5.22703 16.8582 4.77181C17.1676 4.31659 17.3227 3.83908 17.3227 3.33945C17.3227 2.92201 17.1723 2.56481 16.8722 2.26731C16.5717 1.97018 16.2158 1.82153 15.8047 1.82153Z" />
</svg>
