<svg width="17" height="17" viewBox="0 0 17 17">
<path d="M8.50004 0C5.00445 0 2.16064 2.84496 2.16064 6.34193C2.16064 11.5522 7.86904 16.6395 8.11213 16.8536C8.22295 16.9512 8.36147 17.0001 8.50004 17.0001C8.63862 17.0001 8.77714 16.9513 8.88801 16.8536C9.13099 16.6396 14.8394 11.5522 14.8394 6.34193C14.8394 2.84496 11.9956 0 8.50004 0ZM8.50004 4.56156C9.47105 4.56156 10.261 5.36022 10.261 6.34193C10.261 7.32364 9.47105 8.12229 8.50004 8.12229C7.52904 8.12229 6.73908 7.32364 6.73908 6.34193C6.73908 5.36022 7.52904 4.56156 8.50004 4.56156Z" />
</svg>
