<svg width="60" height="60" viewBox="0 0 60 60" fill="none" xmlns="http://www.w3.org/2000/svg">
<circle cx="30" cy="30" r="30" fill="white"/>
<path d="M46.9706 13.0294C42.4376 8.49646 36.4106 6 30.0002 6C23.5894 6 17.5624 8.49646 13.0294 13.0294C8.49649 17.5624 6 23.5895 6 30C6 30.3885 6.31463 30.7031 6.70324 30.7031C7.09185 30.7031 7.40648 30.3885 7.40648 30C7.40648 23.9648 9.75646 18.2911 14.0239 14.0237C18.2913 9.75659 23.9652 7.40625 30.0002 7.40625C36.0348 7.40625 41.7087 9.75623 45.9761 14.0237C50.2435 18.2911 52.5935 23.9648 52.5935 30C52.5935 36.0352 50.2435 41.7089 45.9761 45.9763C41.7087 50.2434 36.0348 52.5938 30.0002 52.5938C24.5252 52.5938 19.2436 50.6107 15.1285 47.0098C11.0516 43.4425 8.38954 38.54 7.6321 33.2058C7.57752 32.8213 7.22114 32.554 6.83693 32.6085C6.45234 32.6631 6.18497 33.019 6.23954 33.4036C7.04423 39.071 9.8722 44.2789 14.2022 48.0677C18.574 51.8932 24.1842 54 30.0002 54C36.4106 54 42.4376 51.5035 46.9706 46.9706C51.5035 42.4376 54 36.4105 54 30C54 23.5895 51.5035 17.5624 46.9706 13.0294Z" fill="#FFAABF"/>
<path d="M24.5269 20.7121C24.6287 20.6547 24.8984 20.5422 25.1919 20.7381L29.9373 23.9065C30.259 24.1214 30.6879 24.0265 30.8958 23.695C31.1042 23.3631 31.0121 22.9207 30.6908 22.7061L25.945 19.5374C25.3179 19.1187 24.5204 19.0875 23.864 19.4558C23.2077 19.8242 22.8 20.5318 22.8 21.3028V39.8971C22.8 40.6681 23.2077 41.3757 23.864 41.7441C24.1687 41.915 24.5038 42 24.8377 42C25.2237 42 25.6089 41.8867 25.945 41.6621L39.8697 32.3651C40.4524 31.9759 40.8 31.316 40.8 30.6001C40.8 29.8839 40.4524 29.2239 39.8697 28.8347L33.6657 24.6924C33.344 24.4779 32.9151 24.5725 32.7071 24.9043C32.4988 25.2358 32.5909 25.6786 32.9122 25.8932L39.1162 30.0355C39.3054 30.1618 39.414 30.3673 39.414 30.5998C39.414 30.8325 39.3054 31.0381 39.1162 31.1644L25.1919 40.4618C24.8984 40.6577 24.6287 40.5452 24.5265 40.4878C24.4243 40.4305 24.1864 40.2577 24.1864 39.8971V21.3028C24.1864 20.9419 24.4243 20.7694 24.5269 20.7121Z" fill="#FFAABF" />
</svg>
